<?xml version="1.0" encoding="UTF-8"?>
<!DOCTYPE svg PUBLIC "-//W3C//DTD SVG 1.1//EN" "http://www.w3.org/Graphics/SVG/1.1/DTD/svg11.dtd">
<svg xmlns="http://www.w3.org/2000/svg" version="1.1" width="192px" height="192px" style="shape-rendering:geometricPrecision; text-rendering:geometricPrecision; image-rendering:optimizeQuality; fill-rule:evenodd; clip-rule:evenodd" xmlns:xlink="http://www.w3.org/1999/xlink">
<g><path style="opacity:0.981" fill="#fefefe" d="M 81.5,-0.5 C 90.8333,-0.5 100.167,-0.5 109.5,-0.5C 154.5,9.16667 181.833,36.5 191.5,81.5C 191.5,90.8333 191.5,100.167 191.5,109.5C 181.833,154.5 154.5,181.833 109.5,191.5C 100.167,191.5 90.8333,191.5 81.5,191.5C 36.5,181.833 9.16667,154.5 -0.5,109.5C -0.5,100.167 -0.5,90.8333 -0.5,81.5C 9.16667,36.5 36.5,9.16667 81.5,-0.5 Z"/></g>
<g><path style="opacity:1" fill="#9fbada" d="M 71.5,40.5 C 63.0097,41.3296 54.343,41.8296 45.5,42C 43.8455,42.6077 42.1789,43.1077 40.5,43.5C 41.347,42.0337 42.6803,41.2004 44.5,41C 53.4938,40.5002 62.4938,40.3336 71.5,40.5 Z"/></g>
<g><path style="opacity:1" fill="#74a0d4" d="M 147.5,60.5 C 119.187,62.6154 90.854,64.6154 62.5,66.5C 59.7292,66.6158 57.7292,65.4491 56.5,63C 55.2068,62.51 53.8734,62.3433 52.5,62.5C 52.6602,60.8008 52.4935,59.1341 52,57.5C 48.1521,53.9854 44.6521,50.152 41.5,46C 43.7148,45.8295 45.7148,45.1628 47.5,44C 45.1527,43.6664 42.8194,43.833 40.5,44.5C 40.6567,45.8734 40.49,47.2068 40,48.5C 39.5831,47.244 38.7498,46.5774 37.5,46.5C 38.1667,45.1667 39.1667,44.1667 40.5,43.5C 42.1789,43.1077 43.8455,42.6077 45.5,42C 54.343,41.8296 63.0097,41.3296 71.5,40.5C 85.9709,38.7215 100.638,38.2215 115.5,39C 126.071,46.4215 136.738,53.5881 147.5,60.5 Z"/></g>
<g><path style="opacity:1" fill="#4d68b0" d="M 37.5,47.5 C 39.1628,49.4385 39.8294,51.7718 39.5,54.5C 41.1667,54.5 42.8333,54.5 44.5,54.5C 44.6881,58.6702 46.6881,61.3369 50.5,62.5C 51.2876,65.97 53.2876,68.6367 56.5,70.5C 57.4656,72.396 57.7989,74.396 57.5,76.5C 53.5074,74.8729 51.174,71.8729 50.5,67.5C 48.6916,67.5086 47.0249,67.0086 45.5,66C 44.5882,63.7951 43.2549,61.9618 41.5,60.5C 40.8333,59.1667 39.8333,58.1667 38.5,57.5C 36.4544,54.2159 36.1211,50.8826 37.5,47.5 Z"/></g>
<g><path style="opacity:1" fill="#6483c0" d="M 147.5,60.5 C 148.404,61.209 148.737,62.209 148.5,63.5C 146.901,63.2322 145.568,63.5655 144.5,64.5C 132.972,64.4362 121.638,65.1029 110.5,66.5C 99.9422,66.0717 89.6089,66.7384 79.5,68.5C 74.8215,68.3342 70.1548,68.5008 65.5,69C 61.0161,72.4038 60.3494,76.5704 63.5,81.5C 66.1667,81.8333 68.8333,82.1667 71.5,82.5C 92.6456,80.9211 113.812,79.5878 135,78.5C 138.433,78.4033 141.6,77.7366 144.5,76.5C 146.262,77.2623 147.262,78.5956 147.5,80.5C 137.807,80.7531 128.141,81.4198 118.5,82.5C 110.84,81.689 103.173,81.5223 95.5,82C 97.8333,82.3333 100.167,82.6667 102.5,83C 89.506,83.9996 76.506,84.8329 63.5,85.5C 60.2633,83.3696 58.2633,80.3696 57.5,76.5C 57.7989,74.396 57.4656,72.396 56.5,70.5C 53.2876,68.6367 51.2876,65.97 50.5,62.5C 46.6881,61.3369 44.6881,58.6702 44.5,54.5C 42.8333,54.5 41.1667,54.5 39.5,54.5C 39.8294,51.7718 39.1628,49.4385 37.5,47.5C 37.5,47.1667 37.5,46.8333 37.5,46.5C 38.7498,46.5774 39.5831,47.244 40,48.5C 40.49,47.2068 40.6567,45.8734 40.5,44.5C 42.8194,43.833 45.1527,43.6664 47.5,44C 45.7148,45.1628 43.7148,45.8295 41.5,46C 44.6521,50.152 48.1521,53.9854 52,57.5C 52.4935,59.1341 52.6602,60.8008 52.5,62.5C 53.8734,62.3433 55.2068,62.51 56.5,63C 57.7292,65.4491 59.7292,66.6158 62.5,66.5C 90.854,64.6154 119.187,62.6154 147.5,60.5 Z"/></g>
<g><path style="opacity:1" fill="#a8a8c4" d="M 110.5,66.5 C 100.357,67.7801 90.0241,68.4467 79.5,68.5C 89.6089,66.7384 99.9422,66.0717 110.5,66.5 Z"/></g>
<g><path style="opacity:1" fill="#c5c4cf" d="M 144.5,64.5 C 144.253,67.9387 144.586,71.272 145.5,74.5C 144.662,74.8417 144.328,75.5084 144.5,76.5C 141.6,77.7366 138.433,78.4033 135,78.5C 113.812,79.5878 92.6456,80.9211 71.5,82.5C 68.8333,82.1667 66.1667,81.8333 63.5,81.5C 60.3494,76.5704 61.0161,72.4038 65.5,69C 70.1548,68.5008 74.8215,68.3342 79.5,68.5C 90.0241,68.4467 100.357,67.7801 110.5,66.5C 121.638,65.1029 132.972,64.4362 144.5,64.5 Z"/></g>
<g><path style="opacity:1" fill="#8960a6" d="M 52.5,107.5 C 49.4257,104.433 46.759,101.1 44.5,97.5C 44.0435,94.2374 42.3769,91.9041 39.5,90.5C 37.7417,85.8866 35.0751,81.8866 31.5,78.5C 31.1667,78.5 30.8333,78.5 30.5,78.5C 30.5674,77.0413 30.2341,75.7079 29.5,74.5C 29.3379,72.4727 29.5045,70.4727 30,68.5C 35.5822,79.2983 42.2488,89.2983 50,98.5C 51.7508,101.252 52.5842,104.252 52.5,107.5 Z"/></g>
<g><path style="opacity:1" fill="#a286bd" d="M 38.5,57.5 C 39.8333,58.1667 40.8333,59.1667 41.5,60.5C 40.7375,61.2679 39.7375,61.7679 38.5,62C 43.928,70.2626 49.928,78.096 56.5,85.5C 59.6124,87.1837 62.9457,87.8503 66.5,87.5C 63.9768,88.3844 61.3102,89.2177 58.5,90C 59.9047,91.2692 61.5714,91.7692 63.5,91.5C 62.1225,92.2344 60.6225,92.9011 59,93.5C 58.8119,95.0613 59.6453,95.728 61.5,95.5C 56.0702,99.1534 55.0702,103.82 58.5,109.5C 56.5003,111.461 54.8337,111.461 53.5,109.5C 52.6618,109.158 52.3284,108.492 52.5,107.5C 52.5842,104.252 51.7508,101.252 50,98.5C 42.2488,89.2983 35.5822,79.2983 30,68.5C 29.5045,70.4727 29.3379,72.4727 29.5,74.5C 28.3622,71.6965 28.1955,68.6965 29,65.5C 31.4778,61.8423 34.6445,59.1756 38.5,57.5 Z"/></g>
<g><path style="opacity:1" fill="#7964ab" d="M 41.5,60.5 C 43.2549,61.9618 44.5882,63.7951 45.5,66C 47.0249,67.0086 48.6916,67.5086 50.5,67.5C 51.174,71.8729 53.5074,74.8729 57.5,76.5C 58.2633,80.3696 60.2633,83.3696 63.5,85.5C 66.9619,86.4816 70.6286,86.815 74.5,86.5C 72.0521,87.4731 69.3854,87.8064 66.5,87.5C 62.9457,87.8503 59.6124,87.1837 56.5,85.5C 49.928,78.096 43.928,70.2626 38.5,62C 39.7375,61.7679 40.7375,61.2679 41.5,60.5 Z"/></g>
<g><path style="opacity:1" fill="#6273b9" d="M 147.5,80.5 C 147.389,81.1174 147.056,81.6174 146.5,82C 122.517,83.8323 98.5171,85.3323 74.5,86.5C 70.6286,86.815 66.9619,86.4816 63.5,85.5C 76.506,84.8329 89.506,83.9996 102.5,83C 100.167,82.6667 97.8333,82.3333 95.5,82C 103.173,81.5223 110.84,81.689 118.5,82.5C 128.141,81.4198 137.807,80.7531 147.5,80.5 Z"/></g>
<g><path style="opacity:1" fill="#b8a0cc" d="M 145.5,74.5 C 150.404,77.2304 154.904,80.5637 159,84.5C 159.74,85.7494 159.573,86.7494 158.5,87.5C 158.53,86.5028 158.03,85.8361 157,85.5C 125.878,86.8643 94.7112,88.8643 63.5,91.5C 61.5714,91.7692 59.9047,91.2692 58.5,90C 61.3102,89.2177 63.9768,88.3844 66.5,87.5C 69.3854,87.8064 72.0521,87.4731 74.5,86.5C 98.5171,85.3323 122.517,83.8323 146.5,82C 147.056,81.6174 147.389,81.1174 147.5,80.5C 147.262,78.5956 146.262,77.2623 144.5,76.5C 144.328,75.5084 144.662,74.8417 145.5,74.5 Z"/></g>
<g><path style="opacity:1" fill="#9a77b4" d="M 158.5,87.5 C 157.432,88.4345 156.099,88.7678 154.5,88.5C 134.801,89.2937 115.135,90.627 95.5,92.5C 84.6529,92.7185 73.9863,93.3852 63.5,94.5C 62.5084,94.3284 61.8417,94.6618 61.5,95.5C 59.6453,95.728 58.8119,95.0613 59,93.5C 60.6225,92.9011 62.1225,92.2344 63.5,91.5C 94.7112,88.8643 125.878,86.8643 157,85.5C 158.03,85.8361 158.53,86.5028 158.5,87.5 Z"/></g>
<g><path style="opacity:1" fill="#ccc2c3" d="M 154.5,88.5 C 154.01,92.4872 154.676,96.1538 156.5,99.5C 154.204,99.8041 153.871,100.804 155.5,102.5C 151.385,104.052 147.052,104.885 142.5,105C 115.521,107.26 88.5206,109.093 61.5,110.5C 60.391,110.443 59.391,110.11 58.5,109.5C 55.0702,103.82 56.0702,99.1534 61.5,95.5C 61.8417,94.6618 62.5084,94.3284 63.5,94.5C 74.3903,94.9384 85.057,94.2717 95.5,92.5C 115.135,90.627 134.801,89.2937 154.5,88.5 Z"/></g>
<g><path style="opacity:1" fill="#0B6623" d="M 39.5,90.5 C 42.3769,91.9041 44.0435,94.2374 44.5,97.5C 42.4525,95.4504 40.7859,93.117 39.5,90.5 Z"/></g>
<g><path style="opacity:1" fill="#ab91a7" d="M 95.5,92.5 C 85.057,94.2717 74.3903,94.9384 63.5,94.5C 73.9863,93.3852 84.6529,92.7185 95.5,92.5 Z"/></g>
<g><path style="opacity:1" fill="#0B6623" d="M 31.5,78.5 C 35.0751,81.8866 37.7417,85.8866 39.5,90.5C 40.7859,93.117 42.4525,95.4504 44.5,97.5C 46.759,101.1 49.4257,104.433 52.5,107.5C 52.3284,108.492 52.6618,109.158 53.5,109.5C 54.5997,113.598 57.2664,115.932 61.5,116.5C 61.5,116.833 61.5,117.167 61.5,117.5C 61.1667,117.5 60.8333,117.5 60.5,117.5C 57.8004,116.484 55.1337,116.484 52.5,117.5C 47.8323,111.15 43.1657,104.816 38.5,98.5C 37.5713,97.3112 37.238,95.9778 37.5,94.5C 36.1667,94.5 34.8333,94.5 33.5,94.5C 33.6621,92.4727 33.4955,90.4727 33,88.5C 31.1871,86.2387 29.6871,83.9053 28.5,81.5C 29.5,81.5 30.5,81.5 31.5,81.5C 31.5,80.5 31.5,79.5 31.5,78.5 Z"/></g>
<g><path style="opacity:1" fill="#0B6623" d="M 30.5,78.5 C 30.8333,78.5 31.1667,78.5 31.5,78.5C 31.5,79.5 31.5,80.5 31.5,81.5C 30.5,81.5 29.5,81.5 28.5,81.5C 29.6871,83.9053 31.1871,86.2387 33,88.5C 33.4955,90.4727 33.6621,92.4727 33.5,94.5C 34.8333,94.5 36.1667,94.5 37.5,94.5C 37.238,95.9778 37.5713,97.3112 38.5,98.5C 43.1657,104.816 47.8323,111.15 52.5,117.5C 55.1337,116.484 57.8004,116.484 60.5,117.5C 59.3282,119.539 57.6616,120.872 55.5,121.5C 55.5,121.833 55.5,122.167 55.5,122.5C 52.4393,125.485 48.7727,126.985 44.5,127C 43.7734,125.601 43.2734,124.101 43,122.5C 40.5969,121.521 39.7636,120.021 40.5,118C 39.552,117.517 38.552,117.351 37.5,117.5C 37.7022,115.011 37.2022,112.677 36,110.5C 34.9887,109.663 33.8221,109.33 32.5,109.5C 32.6602,107.801 32.4935,106.134 32,104.5C 29.8918,102.618 28.5585,100.285 28,97.5C 27.0922,95.5614 25.5922,94.5614 23.5,94.5C 22.3684,93.6457 21.035,93.6457 19.5,94.5C 17.6265,85.623 21.2932,80.2896 30.5,78.5 Z"/></g>
<g><path style="opacity:1" fill="#ab8cbc" d="M 155.5,102.5 C 157.19,102.856 158.19,103.856 158.5,105.5C 137.466,106.921 116.466,108.754 95.5,111C 98.0356,111.186 100.369,111.686 102.5,112.5C 92.1613,112.666 81.828,112.5 71.5,112C 67.9748,111.821 64.6414,111.321 61.5,110.5C 88.5206,109.093 115.521,107.26 142.5,105C 147.052,104.885 151.385,104.052 155.5,102.5 Z"/></g>
<g><path style="opacity:1" fill="#ac77b5" d="M 158.5,105.5 C 158.64,107.124 157.973,108.29 156.5,109C 138.548,110.914 120.548,112.08 102.5,112.5C 100.369,111.686 98.0356,111.186 95.5,111C 116.466,108.754 137.466,106.921 158.5,105.5 Z"/></g>
<g><path style="opacity:1" fill="#ac78b2" d="M 53.5,109.5 C 54.8337,111.461 56.5003,111.461 58.5,109.5C 59.391,110.11 60.391,110.443 61.5,110.5C 64.6414,111.321 67.9748,111.821 71.5,112C 81.828,112.5 92.1613,112.666 102.5,112.5C 89.0242,114.285 75.3575,115.618 61.5,116.5C 57.2664,115.932 54.5997,113.598 53.5,109.5 Z"/></g>
<g><path style="opacity:1" fill="#0B6623" d="M 158.5,105.5 C 159.497,108.005 159.497,110.672 158.5,113.5C 156.833,113.5 155.167,113.5 153.5,113.5C 150.998,113.251 148.498,112.917 146,112.5C 117.803,114.064 89.6368,115.731 61.5,117.5C 61.5,117.167 61.5,116.833 61.5,116.5C 75.3575,115.618 89.0242,114.285 102.5,112.5C 120.548,112.08 138.548,110.914 156.5,109C 157.973,108.29 158.64,107.124 158.5,105.5 Z"/></g>
<g><path style="opacity:1" fill="#0B6623" d="M 23.5,94.5 C 24.2513,103.477 27.5846,110.644 33.5,116C 34.6155,117.235 34.6155,118.402 33.5,119.5C 36.0657,120.806 37.0657,122.639 36.5,125C 38.1341,125.494 39.8008,125.66 41.5,125.5C 42.4501,132.251 43.7834,138.917 45.5,145.5C 35.9421,128.946 27.2754,111.946 19.5,94.5C 21.035,93.6457 22.3684,93.6457 23.5,94.5 Z"/></g>
<g><path style="opacity:1" fill="#0B6623" d="M 153.5,113.5 C 152.737,114.268 151.737,114.768 150.5,115C 144.984,115.173 139.651,115.673 134.5,116.5C 132.833,116.5 131.167,116.5 129.5,116.5C 104.84,116.787 80.1735,118.454 55.5,121.5C 57.6616,120.872 59.3282,119.539 60.5,117.5C 60.8333,117.5 61.1667,117.5 61.5,117.5C 89.6368,115.731 117.803,114.064 146,112.5C 148.498,112.917 150.998,113.251 153.5,113.5 Z"/></g>
<g><path style="opacity:1" fill="#0B6623" d="M 156.5,99.5 C 161.838,104 167.338,108.333 173,112.5C 173.956,116.925 172.123,118.592 167.5,117.5C 161.894,118.407 156.227,118.74 150.5,118.5C 144.729,119.113 139.396,118.446 134.5,116.5C 139.651,115.673 144.984,115.173 150.5,115C 151.737,114.768 152.737,114.268 153.5,113.5C 155.167,113.5 156.833,113.5 158.5,113.5C 159.497,110.672 159.497,108.005 158.5,105.5C 158.19,103.856 157.19,102.856 155.5,102.5C 153.871,100.804 154.204,99.8041 156.5,99.5 Z"/></g>
<g><path style="opacity:1" fill="#a19d95" d="M 167.5,117.5 C 167.5,118.167 167.5,118.833 167.5,119.5C 153.903,121.025 140.237,121.692 126.5,121.5C 134.536,120.831 142.536,119.831 150.5,118.5C 156.227,118.74 161.894,118.407 167.5,117.5 Z"/></g>
<g><path style="opacity:1" fill="#c2bebe" d="M 167.5,119.5 C 167.221,124.595 167.555,129.595 168.5,134.5C 167.733,135.172 167.066,136.005 166.5,137C 146.49,138.835 126.49,140.668 106.5,142.5C 88.8304,143.792 71.1637,145.125 53.5,146.5C 50.428,143.967 49.0946,140.634 49.5,136.5C 49.5561,134.36 50.2227,132.694 51.5,131.5C 55.205,129.817 59.205,128.984 63.5,129C 61.8333,128.667 60.1667,128.333 58.5,128C 73.4866,126.816 88.4866,125.816 103.5,125C 107.736,124.665 111.736,123.832 115.5,122.5C 119.119,121.756 122.785,121.423 126.5,121.5C 140.237,121.692 153.903,121.025 167.5,119.5 Z"/></g>
<g><path style="opacity:1" fill="#aaa09e" d="M 115.5,122.5 C 111.736,123.832 107.736,124.665 103.5,125C 88.4866,125.816 73.4866,126.816 58.5,128C 60.1667,128.333 61.8333,128.667 63.5,129C 59.205,128.984 55.205,129.817 51.5,131.5C 52.0312,129.376 53.3645,127.876 55.5,127C 75.4514,124.839 95.4514,123.339 115.5,122.5 Z"/></g>
<g><path style="opacity:1" fill="#0B6623" d="M 23.5,94.5 C 25.5922,94.5614 27.0922,95.5614 28,97.5C 28.5585,100.285 29.8918,102.618 32,104.5C 32.4935,106.134 32.6602,107.801 32.5,109.5C 33.8221,109.33 34.9887,109.663 36,110.5C 37.2022,112.677 37.7022,115.011 37.5,117.5C 38.552,117.351 39.552,117.517 40.5,118C 39.7636,120.021 40.5969,121.521 43,122.5C 43.2734,124.101 43.7734,125.601 44.5,127C 48.7727,126.985 52.4393,125.485 55.5,122.5C 80.3819,121.406 105.049,119.406 129.5,116.5C 131.167,116.5 132.833,116.5 134.5,116.5C 139.396,118.446 144.729,119.113 150.5,118.5C 142.536,119.831 134.536,120.831 126.5,121.5C 122.785,121.423 119.119,121.756 115.5,122.5C 95.4514,123.339 75.4514,124.839 55.5,127C 53.3645,127.876 52.0312,129.376 51.5,131.5C 50.2227,132.694 49.5561,134.36 49.5,136.5C 49.0946,140.634 50.428,143.967 53.5,146.5C 54.9503,148.383 56.9503,149.383 59.5,149.5C 77.6545,148.145 95.6545,146.312 113.5,144C 110.964,143.814 108.631,143.314 106.5,142.5C 126.49,140.668 146.49,138.835 166.5,137C 167.066,136.005 167.733,135.172 168.5,134.5C 169.458,135.962 170.624,137.295 172,138.5C 172.49,139.793 172.657,141.127 172.5,142.5C 132.572,146.782 92.5722,149.948 52.5,152C 49.2468,150.726 46.9135,148.56 45.5,145.5C 43.7834,138.917 42.4501,132.251 41.5,125.5C 39.8008,125.66 38.1341,125.494 36.5,125C 37.0657,122.639 36.0657,120.806 33.5,119.5C 34.6155,118.402 34.6155,117.235 33.5,116C 27.5846,110.644 24.2513,103.477 23.5,94.5 Z"/></g>
<g><path style="opacity:1" fill="#0B6623" d="M 106.5,142.5 C 108.631,143.314 110.964,143.814 113.5,144C 95.6545,146.312 77.6545,148.145 59.5,149.5C 56.9503,149.383 54.9503,148.383 53.5,146.5C 71.1637,145.125 88.8304,143.792 106.5,142.5 Z"/></g>
<g><path style="opacity:1" fill="#0B6623" d="M 129.5,116.5 C 105.049,119.406 80.3819,121.406 55.5,122.5C 55.5,122.167 55.5,121.833 55.5,121.5C 80.1735,118.454 104.84,116.787 129.5,116.5 Z"/></g>
</svg>
